<?xml version="1.0" encoding="UTF-8"?>
<svg id="Layer_1" data-name="Layer 1" xmlns="http://www.w3.org/2000/svg" viewBox="0 0 1369.98 409.92">
  <defs>
    <style>
      .cls-1 {
        fill: #231f20;
      }
    </style>
  </defs>
  <path class="cls-1" d="M1045.76,13.7l168.08,291.98c11.53,20.03-2.9,45.04-26.01,45.07l-70.17.11c-5.41,0-8.81,5.84-6.15,10.55l27.41,48.5h187.06c6.84,0,11.12-7.4,7.7-13.33l-168.94-293c-11.57-20.07,2.94-45.14,26.11-45.09l138.1.29c7.68.02,14.77-4.08,18.59-10.74l21.49-37.44c2.71-4.72-.7-10.6-6.14-10.59l-309.44.37c-6.83,0-11.1,7.4-7.69,13.32Z"/>
  <path class="cls-1" d="M1031.85,340.05l-119.95-207.73c-5.32-9.22-5.35-20.57-.07-29.81l50.98-89.22c3.39-5.92-.89-13.3-7.72-13.3h-309.9c-7.45,0-14.33,3.97-18.06,10.42l-21.58,37.38c-2.72,4.72.68,10.61,6.13,10.61h206.03c22.64-.01,36.81,24.47,25.52,44.1l-71.66,124.6c-1.56,2.72.4,6.11,3.53,6.11h49.64c7.67,0,14.76-4.11,18.57-10.77l13.52-23.66c5.81-10.16,20.47-10.14,26.24.05l62.28,109.88c10.63,18.85-2.99,42.16-24.63,42.16h-268.24c-11.96,0-23.02-6.39-28.99-16.75L438.51,13.34c-3.42-5.93-11.97-5.93-15.4,0l-120.85,209.31c-2.74,4.75.69,10.69,6.17,10.69h42.76c7.64,0,14.7-4.08,18.52-10.69l35.61-61.67c11.33-19.62,39.65-19.62,50.98,0l136.96,237.23c3.82,6.61,10.87,10.68,18.5,10.69l380.14.32c7.65,0,14.71-4.07,18.54-10.69l21.42-37.09c3.82-6.62,3.82-14.77,0-21.38Z"/>
  <path class="cls-1" d="M419.03,350.97H148.38c-23.97,0-38.96-25.95-26.98-46.71l135.46-234.77c3.82-6.62,3.82-14.76,0-21.38l-21.36-37c-2.72-4.72-9.53-4.72-12.25,0L1.2,396.45c-3.42,5.93.87,13.33,7.71,13.32l376.25-.27c7.63,0,14.69-4.08,18.5-10.69l21.49-37.23c2.72-4.72-.68-10.61-6.13-10.61Z"/>
</svg>